<mxfile host="app.diagrams.net" modified="2021-07-20T08:43:32.939Z" agent="5.0 (X11)" etag="sKmfo0Tk5lj5wiukLoJP" version="14.9.0" type="github" pages="2">
  <diagram name="Page-1" id="5f0bae14-7c28-e335-631c-24af17079c00">
    <mxGraphModel dx="782" dy="764" grid="1" gridSize="10" guides="1" tooltips="1" connect="1" arrows="1" fold="1" page="1" pageScale="1" pageWidth="1100" pageHeight="850" background="none" math="0" shadow="0">
      <root>
        <mxCell id="0" />
        <mxCell id="1" parent="0" />
      </root>
    </mxGraphModel>
  </diagram>
  <diagram id="rxqkot6vZ8qjT9jHZh6Q" name="Page-2">
    <mxGraphModel dx="782" dy="764" grid="1" gridSize="10" guides="1" tooltips="1" connect="1" arrows="1" fold="1" page="1" pageScale="1" pageWidth="850" pageHeight="1100" math="0" shadow="0">
      <root>
        <mxCell id="pBnW542FO_kebwTk23iw-0" />
        <mxCell id="pBnW542FO_kebwTk23iw-1" parent="pBnW542FO_kebwTk23iw-0" />
      </root>
    </mxGraphModel>
  </diagram>
</mxfile>
